<svg width="97" height="125" viewBox="0 0 97 125" fill="none" xmlns="http://www.w3.org/2000/svg">
<g clip-path="url(#clip0_153_3982)">
<path d="M48.5944 0L11.2891 21.9459V64.331C29.9911 43.6644 48.5944 45.622 48.5944 45.622C71.9666 45.622 86.1487 64.331 86.1487 64.331V21.5939L48.5944 0ZM48.5172 7.27238L18.1698 24.8051C18.393 26.2089 17.3628 26.4364 17.3628 26.4364C15.032 24.7192 17.4658 23.6503 17.4658 23.6503L47.3496 6.20771C49.586 4.91981 48.5301 7.2595 48.5301 7.2595" fill="white"/>
<path d="M48.5515 52.6194C48.5515 52.6194 33.2104 50.9022 17.0452 68.4177L48.4271 86.4269L79.577 68.4177C79.6028 68.4177 66.5753 52.6194 48.5515 52.6194ZM43.1044 58.0114C39.3142 58.9902 31.8068 60.9436 25.5571 67.0268C25.5571 67.0268 23.222 67.9068 24.5011 65.623C24.5011 65.623 35.3695 56.0924 44.5596 57.097C44.5596 57.097 45.2892 57.4447 43.1044 58.0243" fill="white"/>
<path d="M0 110.078V99.2163H7.85941V100.496H1.42937V103.831H7.45593V105.111H1.42937V108.824H8.10837V110.103H0V110.078Z" fill="white"/>
<path d="M11.2719 110.078V99.2163H12.7527L18.4745 107.747V99.2163H19.8567V110.078H18.3758L12.654 101.526V110.078H11.2719Z" fill="white"/>
<path d="M28.5448 105.806V104.518H33.1634V108.553C32.5007 109.085 31.7648 109.519 30.9785 109.841C30.2403 110.12 29.4584 110.265 28.6693 110.271C27.6572 110.284 26.6569 110.051 25.7547 109.592C24.9038 109.153 24.2106 108.46 23.7716 107.609C23.314 106.709 23.0828 105.712 23.0977 104.703C23.0918 103.679 23.3147 102.667 23.7502 101.74C24.1422 100.87 24.8127 100.156 25.656 99.7097C26.5376 99.2452 27.5227 99.0118 28.519 99.0314C29.2518 99.0208 29.98 99.149 30.6652 99.4092C31.2469 99.6293 31.7647 99.9908 32.1718 100.461C32.5597 100.996 32.8409 101.601 33.0002 102.243L31.7125 102.595C31.5747 102.138 31.3708 101.704 31.1073 101.307C30.8491 100.958 30.4915 100.696 30.0815 100.555C29.6042 100.359 29.0908 100.265 28.5749 100.281C27.9882 100.265 27.4045 100.368 26.8579 100.581C26.4175 100.746 26.0219 101.012 25.7031 101.358C25.409 101.67 25.1786 102.036 25.025 102.436C24.7416 103.128 24.5958 103.869 24.5958 104.617C24.5711 105.456 24.743 106.29 25.098 107.051C25.4136 107.68 25.9239 108.19 26.553 108.506C27.1808 108.828 27.8778 108.992 28.5833 108.983C29.2107 108.979 29.832 108.859 30.4162 108.631C30.9089 108.45 31.3676 108.187 31.7727 107.854V105.806H28.5448Z" fill="white"/>
<path d="M38.1295 99.2163H36.7001V110.078H38.1295V99.2163Z" fill="white"/>
<path d="M41.8467 110.078V99.2163H43.3276L49.0536 107.747V99.2163H50.4358V110.078H48.9506L43.2288 101.526V110.078H41.8467Z" fill="white"/>
<path d="M54.05 110.078V99.2163H61.9052V100.496H55.4794V103.831H61.506V105.111H55.4794V108.824H62.1584V110.103H54.05V110.078Z" fill="white"/>
<path d="M65.395 110.078V99.2163H73.2544V100.496H66.8287V103.831H72.8509V105.111H66.8287V108.824H73.5034V110.103H65.395V110.078Z" fill="white"/>
<path d="M76.6927 110.099V99.2373H81.5131C82.2606 99.205 83.0079 99.3067 83.7195 99.5378C84.2215 99.7432 84.6442 100.104 84.9256 100.568C85.2257 101.059 85.3819 101.624 85.3763 102.199C85.3866 102.559 85.3255 102.916 85.1966 103.252C85.0676 103.587 84.8734 103.893 84.6251 104.153C83.9957 104.746 83.1791 105.101 82.3159 105.157C82.6382 105.291 82.9356 105.479 83.1958 105.711C83.6596 106.139 84.0638 106.627 84.3976 107.162L86.2821 110.124H84.475L83.0413 107.866C82.612 107.214 82.2644 106.711 82.0154 106.359C81.8039 106.088 81.5586 105.844 81.2856 105.634C81.084 105.502 80.8642 105.401 80.6332 105.333C80.3673 105.296 80.099 105.279 79.8305 105.282H78.1479V110.099H76.6927ZM78.1479 104.028H81.217C81.7354 104.046 82.2531 103.978 82.7494 103.827C83.1017 103.716 83.405 103.487 83.6079 103.178C83.804 102.89 83.9087 102.549 83.9083 102.199C83.9172 101.958 83.8725 101.717 83.7775 101.494C83.6826 101.271 83.5396 101.073 83.3589 100.912C82.843 100.536 82.2094 100.358 81.5733 100.409H78.1393L78.1479 104.028Z" fill="white"/>
<path d="M88.3423 106.591L89.6944 106.467C89.7455 106.937 89.9009 107.391 90.1494 107.793C90.4258 108.181 90.8091 108.479 91.2525 108.652C91.7832 108.881 92.3573 108.992 92.9352 108.978C93.4317 108.99 93.9257 108.905 94.3902 108.729C94.7616 108.604 95.0853 108.367 95.3175 108.051C95.5152 107.782 95.6219 107.457 95.6222 107.124C95.6251 106.796 95.5178 106.477 95.3175 106.218C95.0541 105.918 94.7166 105.693 94.3388 105.565C93.7083 105.345 93.0627 105.17 92.4072 105.042C91.6845 104.884 90.9787 104.656 90.2995 104.363C89.8297 104.141 89.4302 103.793 89.1449 103.359C88.8908 102.954 88.7596 102.484 88.7672 102.006C88.7623 101.458 88.9289 100.922 89.2436 100.474C89.5769 99.9862 90.0498 99.6106 90.6001 99.3962C91.2381 99.1388 91.9211 99.0118 92.6089 99.0228C93.3444 99.0037 94.0757 99.1397 94.7551 99.422C95.3361 99.6557 95.834 100.058 96.1845 100.577C96.5142 101.09 96.6969 101.684 96.7125 102.294L95.3303 102.393C95.3135 102.097 95.2386 101.807 95.1097 101.541C94.9808 101.274 94.8004 101.036 94.5791 100.839C94.0224 100.448 93.3472 100.263 92.669 100.315C91.9983 100.256 91.3271 100.424 90.7632 100.791C90.5793 100.922 90.429 101.095 90.3246 101.295C90.2201 101.495 90.1646 101.716 90.1623 101.942C90.1584 102.123 90.1949 102.302 90.2692 102.467C90.3434 102.632 90.4536 102.778 90.5915 102.895C90.8662 103.148 91.5959 103.397 92.7377 103.672C93.5592 103.837 94.3649 104.072 95.1457 104.376C95.7061 104.61 96.1927 104.991 96.5536 105.479C96.8592 105.939 97.0165 106.482 97.0044 107.034C97.0004 107.615 96.8258 108.182 96.5022 108.665C96.1471 109.191 95.652 109.607 95.0728 109.867C94.4083 110.157 93.6901 110.303 92.9652 110.296C92.1168 110.316 91.2726 110.17 90.4799 109.867C89.8431 109.604 89.3001 109.155 88.9217 108.579C88.5615 107.988 88.3632 107.313 88.3466 106.621" fill="white"/>
<path d="M11.9974 124.85L15.2125 116.521H16.4015L19.8139 124.85H18.5477L17.569 122.317H14.0793L13.1736 124.85H11.9974ZM14.4098 121.437H17.2599L16.4015 119.132C16.1267 118.428 15.9508 117.844 15.8006 117.414C15.6948 117.953 15.5425 118.482 15.3455 118.994L14.4098 121.437Z" fill="white"/>
<path d="M27.2139 116.539H28.317V121.355C28.336 122.034 28.2433 122.712 28.0424 123.36C27.8457 123.867 27.4823 124.293 27.0121 124.567C26.4103 124.883 25.734 125.032 25.0548 124.996C24.3944 125.028 23.7367 124.891 23.1447 124.597C22.6596 124.347 22.2847 123.927 22.093 123.416C21.8564 122.748 21.7457 122.042 21.7668 121.334V116.539H22.87V121.355C22.8479 121.898 22.9161 122.441 23.0717 122.961C23.2031 123.303 23.4509 123.587 23.7713 123.764C24.1443 123.954 24.5589 124.049 24.9775 124.038C25.7802 124.038 26.3597 123.862 26.6945 123.489C27.0293 123.115 27.2182 122.407 27.2182 121.381V116.539H27.2139Z" fill="white"/>
<path d="M30.8539 122.166L31.8798 122.063C31.9158 122.43 32.0362 122.782 32.2317 123.094C32.4402 123.386 32.7276 123.612 33.0602 123.746C33.4659 123.923 33.9056 124.008 34.348 123.995C34.7237 124.01 35.0985 123.95 35.451 123.819C35.7385 123.716 35.9914 123.535 36.1808 123.296C36.3255 123.089 36.4034 122.843 36.404 122.591C36.4107 122.346 36.3317 122.107 36.1808 121.913C35.9742 121.687 35.7146 121.516 35.4254 121.415C35.1979 121.338 34.6957 121.188 33.9445 121.012C33.3888 120.906 32.8491 120.728 32.339 120.484C31.9842 120.312 31.6862 120.043 31.4806 119.707C31.28 119.402 31.1753 119.045 31.1801 118.681C31.1835 118.262 31.3055 117.852 31.5321 117.5C31.7814 117.115 32.1512 116.824 32.5837 116.671C33.0745 116.491 33.5932 116.398 34.1162 116.397C34.6745 116.387 35.2292 116.489 35.7473 116.697C36.183 116.873 36.5564 117.175 36.8201 117.564C37.0838 117.954 37.2258 118.412 37.2282 118.882L36.1765 118.955C36.165 118.726 36.1079 118.502 36.0083 118.296C35.9088 118.089 35.7689 117.905 35.597 117.753C35.1758 117.449 34.6596 117.306 34.1419 117.35C33.6278 117.304 33.1135 117.437 32.6868 117.727C32.5497 117.826 32.4373 117.954 32.3583 118.103C32.2794 118.252 32.236 118.418 32.2317 118.586C32.225 118.725 32.251 118.863 32.3077 118.99C32.3644 119.117 32.4501 119.228 32.558 119.316C33.0627 119.629 33.627 119.833 34.2149 119.917C34.8479 120.041 35.4696 120.218 36.0735 120.445C36.5072 120.624 36.882 120.922 37.1552 121.304C37.3854 121.654 37.5077 122.065 37.5071 122.484C37.5045 122.93 37.3734 123.365 37.1294 123.738C36.8637 124.145 36.4783 124.46 36.0263 124.639C35.5212 124.868 34.9709 124.98 34.4166 124.966C33.7658 124.988 33.1173 124.877 32.5108 124.639C32.0203 124.43 31.6012 124.082 31.3046 123.639C31.0137 123.201 30.8639 122.684 30.8754 122.158" fill="white"/>
<path d="M42.1731 124.85V117.5H39.4388V116.521H46.0406V117.5H43.2806V124.85H42.1731Z" fill="white"/>
<path d="M48.2253 124.85V116.538H51.9383C52.5196 116.513 53.1007 116.59 53.6553 116.766C54.0452 116.923 54.3715 117.205 54.5824 117.569C54.8124 117.946 54.9342 118.38 54.9344 118.822C54.9414 119.379 54.7357 119.918 54.3592 120.329C53.8645 120.776 53.2375 121.048 52.5736 121.106C52.8145 121.212 53.0364 121.357 53.2304 121.535C53.5757 121.864 53.8784 122.235 54.1317 122.639L55.5869 124.897H54.2091L53.1016 123.18C52.8546 122.781 52.5866 122.395 52.2988 122.025C52.1476 121.811 51.962 121.624 51.7495 121.471C51.5939 121.372 51.4246 121.297 51.2472 121.248C51.0476 121.211 50.845 121.194 50.642 121.196H49.3543V124.884L48.2253 124.85ZM49.3285 120.209H51.6894C52.0884 120.223 52.487 120.172 52.8698 120.059C53.1364 119.967 53.3656 119.791 53.5222 119.556C53.6711 119.334 53.7489 119.072 53.7454 118.805C53.7481 118.621 53.7112 118.438 53.6372 118.269C53.5631 118.1 53.4536 117.949 53.3162 117.826C52.9242 117.542 52.4423 117.409 51.9598 117.453H49.3242L49.3285 120.209Z" fill="white"/>
<path d="M56.7844 124.85L59.9994 116.521H61.1799L64.5923 124.85H63.3347L62.356 122.317H58.8662L57.9648 124.85H56.7844ZM59.1709 121.437H62.0083L61.1283 119.114C60.8493 118.41 60.6991 117.827 60.5231 117.397C60.4208 117.936 60.2699 118.465 60.0724 118.977L59.1709 121.437Z" fill="white"/>
<path d="M66.4767 124.85V116.521H67.5798V123.871H71.6963V124.85H66.4767Z" fill="white"/>
<path d="M75.3362 116.521H74.233V124.85H75.3362V116.521Z" fill="white"/>
<path d="M77.4437 124.85L80.6587 116.521H81.8392L85.2731 124.85H84.0197L83.0411 122.317H79.5514L78.6456 124.85H77.4437ZM79.8561 121.437H82.6933L81.8134 119.132C81.5387 118.428 81.3842 117.844 81.2125 117.414C81.1067 117.953 80.9544 118.482 80.7575 118.994L79.8561 121.437Z" fill="white"/>
</g>
<defs>
<clipPath id="clip0_153_3982">
<rect width="97" height="125" fill="white"/>
</clipPath>
</defs>
</svg>
