<svg xmlns:xlink="http://www.w3.org/1999/xlink" version="1.1" class="highcharts-root" style="font-family:-apple-system, BlinkMacSystemFont, &quot;Segoe UI&quot;, &quot;Roboto&quot;, &quot;Oxygen&quot;, &quot;Ubuntu&quot;, &quot;Cantarell&quot;, &quot;Fira Sans&quot;, &quot;Droid Sans&quot;, &quot;Helvetica Neue&quot;, sans-serif;;font-size:12px;"
  xmlns="http://www.w3.org/2000/svg" width="990" height="550" viewBox="0 0 990 550">
  <desc>Created with Highcharts 9.3.3</desc>
  <defs>
    <clipPath id="highcharts-nii2bc6-443-">
      <rect x="0" y="0" width="912" height="425" fill="none"></rect>
    </clipPath>
    <clipPath id="highcharts-nii2bc6-661-">
      <rect x="0" y="0" width="912" height="425" fill="none"></rect>
    </clipPath>
    <clipPath id="highcharts-nii2bc6-879-">
      <rect x="68" y="10" width="912" height="425" fill="none"></rect>
    </clipPath>
  </defs>
  <rect fill="#ffffff" class="highcharts-background" x="0" y="0" width="990" height="550" rx="0" ry="0"></rect>
  <rect fill="none" class="highcharts-plot-background" x="68" y="10" width="912" height="425"></rect>
  <g class="highcharts-pane-group" data-z-index="0"></g>
  <g class="highcharts-grid highcharts-xaxis-grid" data-z-index="1">
    <path fill="none" stroke-dasharray="none" data-z-index="1" class="highcharts-grid-line" d="M 69.5 10 L 69.5 435" opacity="1"></path>
    <path fill="none" stroke-dasharray="none" data-z-index="1" class="highcharts-grid-line" d="M 170.5 10 L 170.5 435" opacity="1"></path>
    <path fill="none" stroke-dasharray="none" data-z-index="1" class="highcharts-grid-line" d="M 271.5 10 L 271.5 435" opacity="1"></path>
    <path fill="none" stroke-dasharray="none" data-z-index="1" class="highcharts-grid-line" d="M 372.5 10 L 372.5 435" opacity="1"></path>
    <path fill="none" stroke-dasharray="none" data-z-index="1" class="highcharts-grid-line" d="M 473.5 10 L 473.5 435" opacity="1"></path>
    <path fill="none" stroke-dasharray="none" data-z-index="1" class="highcharts-grid-line" d="M 573.5 10 L 573.5 435" opacity="1"></path>
    <path fill="none" stroke-dasharray="none" data-z-index="1" class="highcharts-grid-line" d="M 674.5 10 L 674.5 435" opacity="1"></path>
    <path fill="none" stroke-dasharray="none" data-z-index="1" class="highcharts-grid-line" d="M 775.5 10 L 775.5 435" opacity="1"></path>
    <path fill="none" stroke-dasharray="none" data-z-index="1" class="highcharts-grid-line" d="M 876.5 10 L 876.5 435" opacity="1"></path>
    <path fill="none" stroke-dasharray="none" data-z-index="1" class="highcharts-grid-line" d="M 977.5 10 L 977.5 435" opacity="1"></path>
  </g>
  <g class="highcharts-grid highcharts-yaxis-grid" data-z-index="1">
    <path fill="none" stroke="#e6e6e6" stroke-width="1" stroke-dasharray="none" data-z-index="1" class="highcharts-grid-line" d="M 68 391.5 L 980 391.5" opacity="1"></path>
    <path fill="none" stroke="#e6e6e6" stroke-width="1" stroke-dasharray="none" data-z-index="1" class="highcharts-grid-line" d="M 68 328.5 L 980 328.5" opacity="1"></path>
    <path fill="none" stroke="#e6e6e6" stroke-width="1" stroke-dasharray="none" data-z-index="1" class="highcharts-grid-line" d="M 68 264.5 L 980 264.5" opacity="1"></path>
    <path fill="none" stroke="#e6e6e6" stroke-width="1" stroke-dasharray="none" data-z-index="1" class="highcharts-grid-line" d="M 68 201.5 L 980 201.5" opacity="1"></path>
    <path fill="none" stroke="#e6e6e6" stroke-width="1" stroke-dasharray="none" data-z-index="1" class="highcharts-grid-line" d="M 68 137.5 L 980 137.5" opacity="1"></path>
    <path fill="none" stroke="#e6e6e6" stroke-width="1" stroke-dasharray="none" data-z-index="1" class="highcharts-grid-line" d="M 68 74.5 L 980 74.5" opacity="1"></path>
    <path fill="none" stroke="#e6e6e6" stroke-width="1" stroke-dasharray="none" data-z-index="1" class="highcharts-grid-line" d="M 68 9.5 L 980 9.5" opacity="1"></path>
  </g>
  <rect fill="none" class="highcharts-plot-border" data-z-index="1" x="68" y="10" width="912" height="425"></rect>
  <g class="highcharts-axis highcharts-xaxis" data-z-index="2">
    <text x="524" data-z-index="7" text-anchor="middle" transform="translate(0,0)" class="highcharts-axis-title" style="color:#222222;font-size:1rem;font-weight:600;fill:#222222;" y="479"></text>
    <path fill="none" class="highcharts-axis-line" stroke="#ccd6eb" stroke-width="1" data-z-index="7" d="M 68 435.5 L 980 435.5"></path>
  </g>
  <g class="highcharts-axis highcharts-yaxis" data-z-index="2">
    <text x="28.866666793823242" data-z-index="7" text-anchor="middle" transform="translate(0,0) rotate(270 28.866666793823242 222.5)" class="highcharts-axis-title" style="color:#222222;font-size:1rem;font-weight:600;fill:#222222;" y="222.5">$ billions</text>
    <path fill="none" class="highcharts-axis-line" data-z-index="7" d="M 68 10 L 68 435"></path>
  </g>
  <g class="highcharts-series-group" data-z-index="3">
    <g class="highcharts-series highcharts-series-0 highcharts-line-series highcharts-color-0" data-z-index="2" opacity="1" transform="translate(68,10) scale(1 1)" clip-path="url(#highcharts-nii2bc6-661-)">
      <path fill="none" d="M 2.1013824884793 272.4170891278415 L 6.3041474654378 263.72794417649686 L 10.506912442396 264.07245892145875 L 14.709677419355 261.4269416363456 L 18.912442396313 267.0637622236553 L 23.115207373272 275.8902045641361 L 27.31797235023 288.76946242837505 L 31.520737327189 288.34867135611535 L 35.723502304147 286.63499653615736 L 39.926267281106 286.2078491032895 L 44.129032258065 287.9761886244776 L 48.331797235023 294.9338609461615 L 52.534562211982 292.1815568028314 L 56.73732718894 291.71754247843626 L 60.940092165899 289.62629983835404 L 65.142857142857 292.76379943453816 L 69.345622119816 285.26710773328296 L 73.548387096774 280.77570332756227 L 77.751152073733 276.7000049056148 L 81.953917050691 269.17788776192697 L 86.15668202765 273.06416663775144 L 90.359447004608 275.75417844712166 L 94.562211981567 283.74793754793444 L 98.764976958525 283.66149104366355 L 102.96774193548 281.8817100733808 L 107.17050691244 281.3261641562283 L 111.3732718894 273.08069317533267 L 115.57603686636 266.5399981095436 L 119.77880184332 266.2107386300413 L 123.98156682028 266.23107898398735 L 128.18433179724 263.4228388673055 L 132.38709677419 261.56805284184657 L 136.58986175115 259.6204639515086 L 140.79262672811 260.496370443312 L 144.99539170507 249.11721368259717 L 149.19815668203 247.3501454335307 L 153.40092165899 250.9961538783671 L 157.60368663594 253.7484580216972 L 161.8064516129 264.8555625483831 L 166.00921658986 262.77957517376046 L 170.21198156682 264.43731402036667 L 174.41474654378 259.20602923985706 L 178.61751152074 255.17736788640988 L 182.8202764977 249.18840492140848 L 187.02304147465 242.84602830659375 L 191.22580645161 236.93079912464688 L 195.42857142857 228.17173420661254 L 199.63133640553 212.2719337813795 L 203.83410138249 223.65109054209438 L 208.03686635945 223.7566061281897 L 212.23963133641 231.0028572214837 L 216.44239631336 231.17320768578222 L 220.64516129032 229.01077380688866 L 224.84792626728 234.45944612019716 L 229.05069124424 230.1180518248289 L 233.2534562212 245.91487920820984 L 237.45622119816 259.9713350570786 L 241.65898617512 268.17993914644694 L 245.86175115207 280.1934606958555 L 250.06451612903 280.17057779766617 L 254.26728110599 282.4016603711277 L 258.47004608295 284.2183082329377 L 262.67281105991 279.9557328091106 L 266.87557603687 275.27236631302367 L 271.07834101382 278.43274880739716 L 275.28110599078 268.42148084955676 L 279.48387096774 255.60197277503448 L 283.6866359447 249.60283963306003 L 287.88940092166 232.51185722985917 L 292.09216589862 228.31284541211352 L 296.29493087558 230.74987406927926 L 300.49769585253 226.18982096899055 L 304.70046082949 226.67798946369666 L 308.90322580645 224.37190183505888 L 313.10599078341 217.56296835160575 L 317.30875576037 221.04879650911667 L 321.51152073733 227.8729852580294 L 325.71428571429 235.16245960345884 L 329.91705069124 242.11504683665618 L 334.1198156682 245.74325747178975 L 338.32258064516 247.6527081984788 L 342.52534562212 250.9808986129075 L 346.72811059908 248.87948579585225 L 350.93087557604 252.7377966850009 L 355.133640553 253.6454849798451 L 359.33640552995 258.8831261209629 L 363.53917050691 259.1208540077078 L 367.74193548387 258.6034462542042 L 371.94470046083 257.9309433018616 L 376.14746543779 254.2607806867143 L 380.35023041475 264.94200905265404 L 384.55299539171 266.15098884032466 L 388.75576036866 271.6975491069986 L 392.95852534562 267.0434218697093 L 397.16129032258 263.94533170929566 L 401.36405529954 265.2267740078992 L 405.5668202765 265.88402169478223 L 409.76958525346 264.9725195835731 L 413.97235023041 267.84559457845813 L 418.17511520737 268.7761657714917 L 422.37788018433 266.30227022279865 L 426.58064516129 257.68940159875183 L 430.78341013825 257.131313137356 L 434.98617511521 266.09759541121616 L 439.18894009217 265.6869745159295 L 443.39170506912 262.5278632936776 L 447.59447004608 260.4874715384606 L 451.79723502304 257.613125271454 L 456 257.169451301005 L 460.20276497696 256.0443754733619 L 464.40552995392 253.04798708267876 L 468.60829493088 255.7189298102245 L 472.81105990783 251.54280089066822 L 477.01382488479 249.49605277484306 L 481.21658986175 242.790092333242 L 485.41935483871 239.67166181888234 L 489.62211981567 230.34306699035747 L 493.82488479263 229.4976710294732 L 498.02764976959 226.15803916594976 L 502.23041474654 224.7392994782101 L 506.4331797235 223.2379271025644 L 510.63594470046 224.17993974469266 L 514.83870967742 213.92331626737754 L 519.04147465438 207.3610095755207 L 523.24423963134 200.09187558403735 L 527.44700460829 203.2992951469112 L 531.64976958525 201.5334981699664 L 535.85253456221 198.2777702664706 L 540.05529953917 197.11709881942193 L 544.25806451613 195.76955037049353 L 548.46082949309 197.03827994788082 L 552.66359447005 195.23307353516546 L 556.866359447 193.05029930232584 L 561.06912442396 195.6843751383443 L 565.27188940092 191.2120398144481 L 569.47465437788 183.8335764205045 L 573.67741935484 189.15003643316336 L 577.8801843318 185.15824197124354 L 582.08294930876 181.4067179403118 L 586.28571428571 188.57923525055128 L 590.48847926267 174.82534216663055 L 594.69124423963 166.3129040401925 L 598.89400921659 187.0702352421758 L 603.09677419355 176.34832616834393 L 607.29953917051 176.44367157746623 L 611.50230414747 169.2355586478211 L 615.70506912442 179.49980975786605 L 619.90783410138 190.69844587730935 L 624.11059907834 194.7487188568242 L 628.3133640553 195.3716421964232 L 632.51612903226 201.72546026033257 L 636.71889400922 199.0074804642865 L 640.92165898618 201.90725217372577 L 645.12442396313 194.34191177790245 L 649.32718894009 191.01117881923048 L 653.52995391705 187.74019565027513 L 657.73271889401 189.85304991642508 L 661.93548387097 193.32870789696292 L 666.13824884793 181.33934051786537 L 670.34101382488 176.99158986188897 L 674.54377880184 171.6458905904326 L 678.7465437788 164.5623623287073 L 682.94930875576 162.35034883707016 L 687.15207373272 168.16641879352983 L 691.35483870968 156.68683153520612 L 695.55760368664 161.99947773150012 L 699.76036866359 158.29499076906876 L 703.96313364055 162.89953839361453 L 708.16589861751 164.17081051524508 L 712.36866359447 160.5464136964764 L 716.57142857143 164.91958979488544 L 720.77419354839 172.44679202705984 L 724.97695852535 172.59044577680407 L 729.1797235023 174.41853508770876 L 733.38248847926 176.25933711982978 L 737.58525345622 176.30383164408687 L 741.78801843318 185.06798165060775 L 745.99078341014 186.60494964565905 L 750.1935483871 178.9709605552677 L 754.39631336406 184.97136496936383 L 758.59907834101 186.80835318511996 L 762.80184331797 200.43384778475598 L 767.00460829493 208.6081275268403 L 771.20737327189 209.94804834303886 L 775.41013824885 219.72540223049924 L 779.61290322581 228.82643934925227 L 783.81566820276 232.41269800437198 L 788.01843317972 228.4997224139932 L 792.22119815668 235.33789515624383 L 796.42396313364 232.80679236207743 L 800.6267281106 235.04296002402558 L 804.82949308756 231.64103582654224 L 809.03225806452 227.92510741501619 L 813.23502304147 220.0800871524342 L 817.43778801843 218.71728343804625 L 821.64055299539 214.28308627779896 L 825.84331797235 201.27797247351862 L 830.04608294931 193.514313626721 L 834.24884792627 193.78382331650667 L 838.45161290323 201.83097584642792 L 842.65437788018 199.98127490945546 L 846.85714285714 210.1552656988646 L 851.0599078341 233.11444021551202 L 855.26267281106 221.8789372045414 L 859.46543778802 202.19074585684933 L 863.66820276498 179.64346350761028 L 867.87096774194 160.50446171646263 L 872.07373271889 160.64938673832853 L 876.27649769585 144.84874553858265 L 880.47926267281 115.23573273732103 L 884.68202764977 82.92126667759459 L 888.88479262673 80.6100939604703 L 893.08755760369 64.18017306051735 L 897.29032258065 50.14151502135138 L 901.4930875576 30.96183252231151 L 905.69585253456 37.51269776507371 L 909.89861751152 36.564328762337254" class="highcharts-graph" data-z-index="1" stroke="#3d9dd1" stroke-width="2" stroke-linejoin="round" stroke-linecap="round"></path>
    </g>
    <g class="highcharts-markers highcharts-series-0 highcharts-line-series highcharts-color-0" data-z-index="2" opacity="1" transform="translate(68,10) scale(1 1)" clip-path="none"></g>
    <g class="highcharts-series highcharts-series-1 highcharts-line-series highcharts-color-1" data-z-index="2" opacity="1" transform="translate(68,10) scale(1 1)" clip-path="url(#highcharts-nii2bc6-661-)">
      <path fill="none" d="M 2.1013824884793 406.2362777391577 L 6.3041474654378 404.0827427651156 L 10.506912442396 401.452480745462 L 14.709677419355 400.74311090159216 L 18.912442396313 400.8613392089038 L 23.115207373272 401.3685767854344 L 27.31797235023 401.7969954904239 L 31.520737327189 403.73949929227535 L 35.723502304147 402.9169862295804 L 39.926267281106 403.1089483199466 L 44.129032258065 402.43644536760405 L 48.331797235023 401.80462312315365 L 52.534562211982 402.2012600251024 L 56.73732718894 402.3487275912115 L 60.940092165899 403.69500476801824 L 65.142857142857 404.2581783179006 L 69.345622119816 403.94925919234436 L 73.548387096774 402.0601488196014 L 77.751152073733 401.5020603582056 L 81.953917050691 399.29767449929824 L 86.15668202765 397.88783371641 L 90.359447004608 396.41951441592676 L 94.562211981567 394.58634001653553 L 98.764976958525 394.6333770850358 L 102.96774193548 393.6824655380562 L 107.17050691244 393.7078909804888 L 111.3732718894 391.78572753258345 L 115.57603686636 392.5078100976696 L 119.77880184332 392.4366188588583 L 123.98156682028 389.4224326584723 L 128.18433179724 395.3185927585947 L 132.38709677419 391.6751268580016 L 136.58986175115 393.184126866377 L 140.79262672811 392.39212433460125 L 144.99539170507 392.32728945639803 L 149.19815668203 391.2416230645256 L 153.40092165899 389.8635640846781 L 157.60368663594 388.32532481750513 L 161.8064516129 388.28845792597787 L 166.00921658986 388.1981976053421 L 170.21198156682 387.33500383475496 L 174.41474654378 388.6189886776018 L 178.61751152074 386.9968454504012 L 182.8202764977 386.137465496179 L 187.02304147465 388.0774267537872 L 191.22580645161 385.7497274990817 L 195.42857142857 387.72019928760903 L 199.63133640553 387.462131046918 L 203.83410138249 391.1183096687274 L 208.03686635945 387.9108901058536 L 212.23963133641 387.5282371972428 L 216.44239631336 389.23047056810606 L 220.64516129032 385.6175151984321 L 224.84792626728 384.03732395124536 L 229.05069124424 381.95879403237944 L 233.2534562212 382.74189765930385 L 237.45622119816 385.34546296440317 L 241.65898617512 386.6853837806018 L 245.86175115207 389.8940746155972 L 250.06451612903 392.0374394126663 L 254.26728110599 389.4656559106077 L 258.47004608295 390.14070140719355 L 262.67281105991 392.9069895438616 L 266.87557603687 388.1346339992606 L 271.07834101382 386.67267105938544 L 275.28110599078 381.0574620981434 L 279.48387096774 382.07829361181274 L 283.6866359447 384.8216988502914 L 287.88940092166 380.0213753190145 L 292.09216589862 380.48411837128805 L 296.29493087558 381.34604086975355 L 300.49769585253 382.96309900846757 L 304.70046082949 386.4565547987083 L 308.90322580645 389.1147848050377 L 313.10599078341 390.95685810928035 L 317.30875576037 391.9268387380844 L 321.51152073733 393.22226503002594 L 325.71428571429 396.8924276451733 L 329.91705069124 399.4998067666375 L 334.1198156682 400.1354428274528 L 338.32258064516 400.795233058579 L 342.52534562212 401.3266248054206 L 346.72811059908 399.5201471205836 L 350.93087557604 398.7039904184968 L 355.133640553 397.50390953567756 L 359.33640552995 396.19577052251975 L 363.53917050691 396.0177924254915 L 367.74193548387 393.8477309138682 L 371.94470046083 393.1828555942554 L 376.14746543779 388.61771740548016 L 380.35023041475 392.42263486552037 L 384.55299539171 395.03001398698456 L 388.75576036866 394.5138775056026 L 392.95852534562 391.10686821963276 L 397.16129032258 387.04388251890157 L 401.36405529954 387.54603500694566 L 405.5668202765 384.50388081988376 L 409.76958525346 383.0673433224413 L 413.97235023041 382.7304562102092 L 418.17511520737 384.4644713841132 L 422.37788018433 384.7988159521021 L 426.58064516129 380.8273618441283 L 430.78341013825 380.06841238751485 L 434.98617511521 379.3742978091046 L 439.18894009217 378.6547577882617 L 443.39170506912 382.5003559561941 L 447.59447004608 381.4324873740244 L 451.79723502304 381.4528277279705 L 456 382.79274854416906 L 460.20276497696 381.0358504720757 L 464.40552995392 381.2939187127667 L 468.60829493088 381.1871318545497 L 472.81105990783 380.18155560633994 L 477.01382488479 382.20796336821905 L 481.21658986175 380.04807203356876 L 485.41935483871 380.3582624312466 L 489.62211981567 378.7030661288837 L 493.82488479263 376.7058976258021 L 498.02764976959 376.08424555832477 L 502.23041474654 373.17684621615575 L 506.4331797235 362.8858983915566 L 510.63594470046 366.6895445794751 L 514.83870967742 359.4674476564921 L 519.04147465438 358.2482976918484 L 523.24423963134 356.7888772962166 L 527.44700460829 357.37874756065315 L 531.64976958525 357.5185874940325 L 535.85253456221 351.80167676306 L 540.05529953917 354.4370238712001 L 544.25806451613 351.09484946343343 L 548.46082949309 350.40073488502316 L 552.66359447005 347.93700951330317 L 556.866359447 345.2177584451355 L 561.06912442396 345.5177786658403 L 565.27188940092 342.7451341685641 L 569.47465437788 338.327463545898 L 573.67741935484 337.6905562129611 L 577.8801843318 334.86833210294134 L 582.08294930876 334.1131964626928 L 586.28571428571 329.8989293794876 L 590.48847926267 326.83134974999314 L 594.69124423963 325.35667408890174 L 598.89400921659 327.56868758053884 L 603.09677419355 328.28187124077357 L 607.29953917051 331.4447962793903 L 611.50230414747 332.8215839871162 L 615.70506912442 332.9309133895764 L 619.90783410138 330.7977187694804 L 624.11059907834 327.56105994780904 L 628.3133640553 321.7538888962008 L 632.51612903226 326.7004087214652 L 636.71889400922 326.62031857780244 L 640.92165898618 325.4571045865105 L 645.12442396313 324.91300011845266 L 649.32718894009 326.15376170916403 L 653.52995391705 320.6351694291659 L 657.73271889401 321.1576622711561 L 661.93548387097 325.05029750758877 L 666.13824884793 322.98575158206074 L 670.34101382488 330.6438948427631 L 674.54377880184 329.7870574327841 L 678.7465437788 331.10790916715825 L 682.94930875576 330.1366572662325 L 687.15207373272 334.8645182865764 L 691.35483870968 333.6924053904331 L 695.55760368664 337.89268848030036 L 699.76036866359 332.53173394338444 L 703.96313364055 332.3728249281806 L 708.16589861751 334.9407946138743 L 712.36866359447 329.4565266811602 L 716.57142857143 334.2136269603016 L 720.77419354839 337.1400953842951 L 724.97695852535 331.4358973745389 L 729.1797235023 327.5178366956736 L 733.38248847926 325.0452124191022 L 737.58525345622 322.03611130720276 L 741.78801843318 328.93657638341324 L 745.99078341014 325.4939714780378 L 750.1935483871 327.3767254901726 L 754.39631336406 331.35834977511945 L 758.59907834101 327.083061630076 L 762.80184331797 329.13362356226605 L 767.00460829493 333.0262587986987 L 771.20737327189 330.9566277846842 L 775.41013824885 332.0715334353542 L 779.61290322581 336.3951299210196 L 783.81566820276 340.07419144101834 L 788.01843317972 338.25881485133 L 792.22119815668 338.0185444203418 L 796.42396313364 339.2478645619585 L 800.6267281106 337.77064635662384 L 804.82949308756 338.88936582365875 L 809.03225806452 336.75489993144106 L 813.23502304147 327.44918800110554 L 817.43778801843 319.8558796186064 L 821.64055299539 320.1266605805137 L 825.84331797235 317.63369594999625 L 830.04608294931 314.27499500464836 L 834.24884792627 311.8583067014287 L 838.45161290323 306.2341988353353 L 842.65437788018 310.93790568536826 L 846.85714285714 299.39475482096304 L 851.0599078341 261.2222668247631 L 855.26267281106 265.17719439515565 L 859.46543778802 308.0432190644155 L 863.66820276498 301.9474692411971 L 867.87096774194 280.1731203419094 L 872.07373271889 291.88407912636984 L 876.27649769585 316.04969088644464 L 880.47926267281 302.5869191183773 L 884.68202764977 292.017562699141 L 888.88479262673 275.7567209913649 L 893.08755760369 282.64065952999425 L 897.29032258065 272.776859138263 L 901.4930875576 255.82953048480636 L 905.69585253456 238.4474267657521 L 909.89861751152 226.01438541620553" class="highcharts-graph" data-z-index="1" stroke="#134a71" stroke-width="2" stroke-linejoin="round" stroke-linecap="round"></path>
    </g>
    <g class="highcharts-markers highcharts-series-1 highcharts-line-series highcharts-color-1" data-z-index="2" opacity="1" transform="translate(68,10) scale(1 1)" clip-path="none"></g>
  </g>
  <text x="495" text-anchor="middle" class="highcharts-title" data-z-index="4" style="color:#222222;font-size:1.2rem;font-weight:600;fill:#222222;" y="25"></text>
  <text x="495" text-anchor="middle" class="highcharts-subtitle" data-z-index="4" style="color:#666666;fill:#666666;" y="24"></text>
  <text x="10" text-anchor="start" class="highcharts-caption" data-z-index="4" style="color:#666666;fill:#666666;" y="532">Source: Australian Bureau of Statistics, Refinancing reached all-time high in July 2/09/2021</text>
  <g class="highcharts-legend highcharts-no-tooltip" data-z-index="7" transform="translate(257,475)">
    <rect fill="none" class="highcharts-legend-box" rx="0" ry="0" x="0" y="0" width="476" height="30" visibility="visible"></rect>
    <g data-z-index="1">
      <g>
        <g class="highcharts-legend-item highcharts-line-series highcharts-color-0 highcharts-series-0" data-z-index="1" transform="translate(8,3)">
          <path fill="none" d="M 0 14 L 16 14" class="highcharts-graph" stroke="#3d9dd1" stroke-width="2"></path>
          <text x="21" style="color:#222222;cursor:pointer;font-size:1rem;font-weight:600;fill:#222222;" text-anchor="start" data-z-index="2" y="19">Total housing (excl. refinancing)</text>
        </g>
        <g class="highcharts-legend-item highcharts-line-series highcharts-color-1 highcharts-series-1" data-z-index="1" transform="translate(293.8666687011719,3)">
          <path fill="none" d="M 0 14 L 16 14" class="highcharts-graph" stroke="#134a71" stroke-width="2"></path>
          <text x="21" y="19" style="color:#222222;cursor:pointer;font-size:1rem;font-weight:600;fill:#222222;" text-anchor="start" data-z-index="2">External refinancing</text>
        </g>
      </g>
    </g>
  </g>
  <g class="highcharts-axis-labels highcharts-xaxis-labels" data-z-index="7">
    <text x="70.101382488479" style="color:#555;cursor:default;font-size:14;fill:#555;" text-anchor="middle" transform="translate(0,0)" y="455" opacity="1">Jul-03</text>
    <text x="170.96774193548" style="color:#555;cursor:default;font-size:14;fill:#555;" text-anchor="middle" transform="translate(0,0)" y="455" opacity="1">Jul-05</text>
    <text x="271.83410138249" style="color:#555;cursor:default;font-size:14;fill:#555;" text-anchor="middle" transform="translate(0,0)" y="455" opacity="1">Jul-07</text>
    <text x="372.70046082949" style="color:#555;cursor:default;font-size:14;fill:#555;" text-anchor="middle" transform="translate(0,0)" y="455" opacity="1">Jul-09</text>
    <text x="473.5668202765" style="color:#555;cursor:default;font-size:14;fill:#555;" text-anchor="middle" transform="translate(0,0)" y="455" opacity="1">Jul-11</text>
    <text x="574.4331797235" style="color:#555;cursor:default;font-size:14;fill:#555;" text-anchor="middle" transform="translate(0,0)" y="455" opacity="1">Jul-13</text>
    <text x="675.29953917051" style="color:#555;cursor:default;font-size:14;fill:#555;" text-anchor="middle" transform="translate(0,0)" y="455" opacity="1">Jul-15</text>
    <text x="776.16589861751" style="color:#555;cursor:default;font-size:14;fill:#555;" text-anchor="middle" transform="translate(0,0)" y="455" opacity="1">Jul-17</text>
    <text x="877.03225806452" style="color:#555;cursor:default;font-size:14;fill:#555;" text-anchor="middle" transform="translate(0,0)" y="455" opacity="1">Jul-19</text>
    <text x="960.8833332061768" style="color:#555;cursor:default;font-size:14;fill:#555;" text-anchor="middle" transform="translate(0,0)" y="455" opacity="1">Jul-21</text>
  </g>
  <g class="highcharts-axis-labels highcharts-yaxis-labels" data-z-index="7">
    <text x="53" style="color:#555;cursor:default;font-size:14;fill:#555;" text-anchor="end" transform="translate(0,0)" y="396" opacity="1">5</text>
    <text x="53" style="color:#555;cursor:default;font-size:14;fill:#555;" text-anchor="end" transform="translate(0,0)" y="332" opacity="1">10</text>
    <text x="53" style="color:#555;cursor:default;font-size:14;fill:#555;" text-anchor="end" transform="translate(0,0)" y="269" opacity="1">15</text>
    <text x="53" style="color:#555;cursor:default;font-size:14;fill:#555;" text-anchor="end" transform="translate(0,0)" y="205" opacity="1">20</text>
    <text x="53" style="color:#555;cursor:default;font-size:14;fill:#555;" text-anchor="end" transform="translate(0,0)" y="142" opacity="1">25</text>
    <text x="53" style="color:#555;cursor:default;font-size:14;fill:#555;" text-anchor="end" transform="translate(0,0)" y="78" opacity="1">30</text>
    <text x="53" style="color:#555;cursor:default;font-size:14;fill:#555;" text-anchor="end" transform="translate(0,0)" y="15" opacity="1">35</text>
  </g>
  <g class="highcharts-control-points" data-z-index="99" clip-path="url(#highcharts-nii2bc6-879-)"></g>
</svg>