<?xml version="1.0" encoding="UTF-8"?>
<!DOCTYPE svg PUBLIC "-//W3C//DTD SVG 1.1//EN" "http://www.w3.org/Graphics/SVG/1.1/DTD/svg11.dtd">
<svg width="2000" height="1000" viewBox="0 0 2000 1000" fill="none"
  xmlns="http://www.w3.org/2000/svg">
  <rect width="2000" height="1000" fill="#FF7A64"/>
  <path transform="translate(500)" d="M927.164 788.283C875.293 701.667 832.978 628.965 794.122 554.875C794.122 554.875 576.915 163.21 525.398 82.2579C521.803 76.5943 515.759 73.1361 509.223 73C502.743 73.0817 496.535 76.0497 492.723 81.55L213.025 569.796C177.028 632.805 126.163 716.316 87.5253 789.1C84.2033 795.363 84.2305 802.932 87.5525 809.168C90.9017 815.403 97.0827 819.406 103.917 819.787C204.366 825.07 298.933 824.035 400.443 823.953C570.489 823.79 743.04 822.156 910.963 818.099C917.552 817.936 923.379 813.633 926.62 807.643C929.914 801.68 930.649 794.11 927.164 788.283Z" fill="#FFEF6E"/>
  <path transform="translate(500)" d="M899.853 525.957C899.309 506.08 895.469 488.245 888.063 471.499C855.333 397.381 787.124 360.377 705.573 372.548C691.877 374.59 678.317 377.967 665.192 382.596C660.618 376.714 654.137 374.209 644.28 374.182H595.458C589.985 374.209 585.002 377.667 582.96 383.195C575.989 402.391 514.152 572.247 494.275 624.99C490.789 634.22 476.793 664.036 443.193 658.264C435.814 657.011 429.17 652.491 425.004 645.847C421.055 639.585 419.884 632.206 421.791 625.616L422.635 622.675C424.622 615.759 426.855 607.917 429.524 600.865L507.263 395.638C508.788 391.609 508.243 387.089 505.765 383.494C503.287 379.954 499.285 377.912 494.955 377.831C470.204 377.477 444.391 377.667 437.447 377.749C424.84 377.912 415.882 384.093 411.743 395.829C400.062 429.076 388.19 461.56 376.481 492.438C370.001 509.538 363.901 527.564 358.51 543.466C351.43 564.459 344.078 586.134 335.692 606.828C330.3 620.17 323.03 635.228 310.314 645.847C294.44 659.108 269.743 666.051 246.571 661.259C217.054 655.187 212.997 626.106 213.977 609.878C214.958 593.241 220.512 577.148 226.503 560.783C239.845 524.187 266.938 451.567 287.469 398.035C289.048 393.978 288.476 389.43 286.026 385.89C283.575 382.323 281.016 380.172 275.189 380.2C268.79 380.227 228 379.982 222.255 380.172C215.257 380.417 209.757 381.806 204.692 385.182C193.174 392.834 178.089 407.265 160.581 424.011C136.538 446.993 106.613 475.556 77.4504 494.453C73.7744 496.822 71.5416 500.879 71.4327 505.263C71.351 509.647 73.4477 513.759 77.0964 516.318C80.3367 518.578 83.3319 518.524 88.696 517.516C89.1589 517.462 89.5946 517.38 90.0302 517.271C98.2535 515.583 116.443 510.981 157.096 500.58C145.523 529.851 133.788 561.219 127.933 594.902C120.799 635.881 130.928 674.166 157.232 705.67C199.519 756.289 269.144 758.249 315.978 738.699C333.595 731.32 347.155 719.339 358.21 707.44C380.293 736.657 419.585 749.046 452.042 745.806C449.401 752.94 446.433 760.972 443.247 769.549L439.789 778.862C425.33 818.017 407.305 866.73 397.475 891.945C394.153 900.467 394.97 909.29 399.708 916.151C404.391 922.931 412.315 926.825 421.791 926.825L469.387 926.471C469.414 926.471 469.414 926.471 469.442 926.471C475.078 926.471 479.925 923.068 481.858 917.758C489.591 896.22 501.082 864.334 512.654 832.204L524.227 800.101C536.807 765.166 547.998 734.07 552.708 720.918L564.09 689.087C569.209 695.05 574.71 700.496 580.482 705.398C620.128 738.808 666.254 751.388 717.608 742.919C761.447 735.649 799.105 717.542 829.547 689.115C877.906 643.86 901.569 588.966 899.853 525.957ZM802.1 542.54C796.328 585.508 776.205 618.183 742.251 639.639C724.47 650.885 705.41 656.576 685.56 656.576C685.423 656.576 685.287 656.576 685.178 656.576C653.865 656.494 627.425 636.971 617.786 606.828C616.18 601.818 614.981 596.399 614.11 590.273C613.838 588.258 613.729 586.243 613.538 583.465L613.321 581.505C615.009 550.845 625.683 523.534 645.097 500.335C665.818 475.556 692.857 461.887 725.423 459.709C727.111 459.6 728.799 459.545 730.46 459.545C757.989 459.545 781.107 474.494 793.85 500.58C801.093 515.256 803.843 529.388 802.1 542.54Z" fill="#242430"/>
</svg>
