<?xml version="1.0" encoding="UTF-8" standalone="no"?>
<!DOCTYPE svg PUBLIC "-//W3C//DTD SVG 1.1//EN" "http://www.w3.org/Graphics/SVG/1.1/DTD/svg11.dtd">
<svg width="100%" height="100%" viewBox="0 0 60 60" version="1.1" xmlns="http://www.w3.org/2000/svg" xmlns:xlink="http://www.w3.org/1999/xlink" xml:space="preserve" xmlns:serif="http://www.serif.com/" style="fill-rule:evenodd;clip-rule:evenodd;stroke-linejoin:round;stroke-miterlimit:2;">
    <g>
        <path d="M24.938,17.891C26.891,15.939 30.057,15.94 32.009,17.892C34.963,20.847 39.154,25.04 42.108,27.994C43.046,28.932 43.572,30.204 43.572,31.53C43.572,32.856 43.045,34.128 42.107,35.065C35.534,41.637 22.095,55.072 22.095,55.072C20.219,56.947 17.676,58 15.025,58C10.781,58 4.8,58 4.8,58C3.255,58 2,56.745 2,55.2L2,44.966C2,42.313 3.054,39.769 4.93,37.894C4.93,37.894 18.366,24.462 24.938,17.891Z" style="fill:rgb(195,68,6);"/>
        <path d="M55.2,58L27.238,58C26.834,58 26.469,57.756 26.314,57.383C26.16,57.009 26.245,56.579 26.531,56.293C32.235,50.59 50.59,32.241 56.293,26.54C56.579,26.254 57.009,26.168 57.383,26.323C57.756,26.478 58,26.843 58,27.247C58,34.434 58,55.2 58,55.2C58,56.745 56.746,58 55.2,58Z" style="fill:rgb(116,21,22);"/>
        <path d="M32.795,2C33.194,2 33.553,2.24 33.706,2.609C33.859,2.978 33.774,3.402 33.492,3.684C27.815,9.359 9.42,27.749 3.708,33.459C3.422,33.745 2.991,33.831 2.618,33.676C2.244,33.521 2,33.156 2,32.752C2,25.563 2,4.8 2,4.8C2,3.255 3.254,2 4.8,2L32.795,2Z" style="fill:rgb(253,187,13);"/>
        <path d="M36.96,12.943C36.022,12.006 35.495,10.734 35.496,9.408C35.496,8.082 36.023,6.81 36.961,5.872C37.513,5.32 37.905,4.928 37.905,4.928C39.781,3.053 42.324,2 44.975,2C49.219,2 55.2,2 55.2,2C56.746,2 58,3.255 58,4.8L58,15.034C58,17.687 56.946,20.231 55.07,22.106C55.07,22.106 54.68,22.496 54.13,23.046C52.177,24.999 49.011,24.998 47.059,23.045C44.105,20.091 39.914,15.898 36.96,12.943Z" style="fill:rgb(195,68,6);"/>
    </g>
</svg>
